<svg xmlns="http://www.w3.org/2000/svg" viewBox="0 0 980 670">
  <defs>
    <linearGradient id="bg" x1="0" y1="0" x2="0" y2="1">
      <stop offset="0" stop-color="#f7f9fd"/>
      <stop offset="1" stop-color="#e7ebf4"/>
    </linearGradient>
  </defs>
  <rect width="980" height="670" fill="url(#bg)"/>
  <circle cx="490" cy="335" r="280" fill="#dde5f2"/>

  <!-- floor -->
  <rect x="140" y="530" width="700" height="22" rx="10" fill="#aab2c2"/>

  <!-- mop -->
  <g transform="translate(310 300) rotate(14)">
    <rect x="-9" y="-190" width="18" height="300" rx="9" fill="#8a6f52"/>
    <rect x="-52" y="104" width="104" height="44" rx="16" fill="#3259a8"/>
    <g stroke="#c9cfda" stroke-width="12" stroke-linecap="round">
      <line x1="-38" y1="148" x2="-42" y2="216"/>
      <line x1="-13" y1="150" x2="-14" y2="220"/>
      <line x1="13" y1="150" x2="14" y2="220"/>
      <line x1="38" y1="148" x2="42" y2="216"/>
    </g>
  </g>

  <!-- bucket -->
  <g transform="translate(500 460)">
    <path d="M -80 -44 L 80 -44 L 62 96 L -62 96 Z" fill="#3259a8"/>
    <ellipse cx="0" cy="-44" rx="80" ry="17" fill="#4d78c8"/>
    <ellipse cx="0" cy="-46" rx="58" ry="11" fill="#bcd2f2"/>
    <path d="M -62 -50 A 62 50 0 0 1 62 -50" fill="none" stroke="#8a94a6" stroke-width="10" stroke-linecap="round"/>
  </g>

  <!-- spray bottle -->
  <g transform="translate(710 420)">
    <rect x="-44" y="-30" width="88" height="160" rx="20" fill="#6fa87d"/>
    <rect x="-14" y="-100" width="28" height="74" fill="#4c8a5c"/>
    <rect x="-14" y="-124" width="70" height="30" rx="10" fill="#2a3140"/>
    <path d="M -14 -108 h -20 v 24 h 20 Z" fill="#2a3140"/>
    <rect x="-36" y="4" width="72" height="76" rx="12" fill="#ffffff" opacity="0.85"/>
    <g stroke="#4d78c8" stroke-width="7" stroke-linecap="round">
      <line x1="74" y1="-118" x2="102" y2="-128"/>
      <line x1="76" y1="-102" x2="106" y2="-102"/>
      <line x1="74" y1="-86" x2="102" y2="-76"/>
    </g>
  </g>

  <!-- sparkles -->
  <g fill="#4d78c8">
    <path d="M 250 150 l 8 24 24 8 -24 8 -8 24 -8 -24 -24 -8 24 -8 z"/>
    <path d="M 700 180 l 6 20 20 6 -20 6 -6 20 -6 -20 -20 -6 20 -6 z"/>
    <path d="M 590 260 l 5 15 15 5 -15 5 -5 15 -5 -15 -15 -5 15 -5 z"/>
    <path d="M 210 440 l 5 16 16 5 -16 5 -5 16 -5 -16 -16 -5 16 -5 z"/>
  </g>

  <!-- gloves -->
  <g transform="translate(352 496) rotate(-8)">
    <path d="M -30 0 a 14 14 0 0 1 14 -14 h 44 a 14 14 0 0 1 14 14 v 26 h -72 Z" fill="#f2a63b"/>
    <rect x="-30" y="-38" width="18" height="30" rx="9" fill="#f2a63b"/>
    <rect x="-8" y="-46" width="18" height="38" rx="9" fill="#f2a63b"/>
    <rect x="14" y="-42" width="18" height="34" rx="9" fill="#f2a63b"/>
  </g>
</svg>
